<?xml version="1.0" encoding="utf-8"?>
<!-- Generator: Adobe Illustrator 16.0.0, SVG Export Plug-In . SVG Version: 6.00 Build 0)  -->
<!DOCTYPE svg PUBLIC "-//W3C//DTD SVG 1.1//EN" "http://www.w3.org/Graphics/SVG/1.1/DTD/svg11.dtd">
<svg version="1.1" id="Layer_1" xmlns="http://www.w3.org/2000/svg" xmlns:xlink="http://www.w3.org/1999/xlink" x="0px" y="0px"
	 width="18px" height="18px" viewBox="11 11 18 18" enable-background="new 11 11 18 18" xml:space="preserve">
<g>
	<path fill="#9ECE42" d="M21.975,11.015c-3.7,0-6.438,0.873-8.134,2.593c-3.893,3.949-2.589,8.187-2.096,9.394
		c0.434,1.061,0.967,1.729,1.375,2.081l1.415-1.247l-0.133-6.283l1.435,5.132l2.093-1.847l0.209-5.107l0.906,4.123l5.037-4.035
		l-3.967,5.148l4.099,0.925l-5.068,0.212l-1.807,2.116l5.079,1.459l-6.208-0.133l-1.206,1.414c0.044,0.053,0.093,0.108,0.15,0.164
		c0.909,0.928,2.821,1.861,5.042,1.861c1.558,0,3.881-0.475,6.112-2.737c3.866-3.918,2.337-12.271,1.838-14.514
		C27.088,11.494,24.65,11.015,21.975,11.015L21.975,11.015L21.975,11.015z"/>
</g>
</svg>
